<svg width="314" height="340" viewBox="0 0 314 340" fill="none" xmlns="http://www.w3.org/2000/svg">
<path fill-rule="evenodd" clip-rule="evenodd" d="M68.0121 44.066H59.3741V12.404H68.0121V44.066ZM63.7081 0C60.5741 0 59.0061 1.40698 59.0061 4.21899C59.0061 7.05103 60.5741 8.46698 63.7081 8.46698C65.2751 8.46698 66.4501 8.09497 67.2341 7.349C68.0171 6.60303 68.4091 5.56 68.4091 4.21899C68.4091 1.40698 66.8411 0 63.7081 0ZM174.174 29.5092L177.516 29.3962V32.0012C177.516 33.9092 176.916 35.4382 175.717 36.5892C174.519 37.7422 172.918 38.3172 170.917 38.3172C168.123 38.3172 166.726 37.0992 166.726 34.6642C166.726 32.9642 167.339 31.7002 168.567 30.8692C169.794 30.0392 171.663 29.5852 174.174 29.5092ZM178.394 39.7612L180.065 44.0662H186.097V22.9672C186.097 19.1922 184.964 16.3782 182.699 14.5282C180.433 12.6782 177.176 11.7522 172.928 11.7522C168.492 11.7522 164.451 12.7072 160.807 14.6132L163.667 20.4472C167.084 18.9172 170.058 18.1532 172.588 18.1532C175.873 18.1532 177.516 19.7582 177.516 22.9672V24.3552L172.022 24.5252C167.283 24.6952 163.739 25.5782 161.387 27.1732C159.037 28.7692 157.862 31.2472 157.862 34.6072C157.862 37.8172 158.735 40.2912 160.481 42.0272C162.228 43.7642 164.62 44.6322 167.661 44.6322C170.134 44.6322 172.14 44.2792 173.678 43.5712C175.217 42.8632 176.713 41.5932 178.167 39.7612H178.394ZM124.003 44.0662H132.641V28.1782C132.641 24.8931 133.165 22.4962 134.212 20.9852C135.261 19.4752 136.842 18.7191 138.956 18.7191C140.599 18.7191 141.802 19.2911 142.568 20.4332C143.331 21.5762 143.714 23.2891 143.714 25.5731V44.0662H152.38V23.4202C152.38 19.3621 151.46 16.4122 149.619 14.5712C147.779 12.7302 145.064 11.8091 141.477 11.8091C139.4 11.8091 137.536 12.2151 135.884 13.0272C134.232 13.8392 132.981 14.9811 132.131 16.4542H131.367C129.686 13.3582 126.477 11.8091 121.738 11.8091C119.661 11.8091 117.82 12.2202 116.215 13.0421C114.611 13.8632 113.383 15.0012 112.534 16.4542H112.052L110.891 12.4041H104.292V44.0662H112.93V29.1702C112.93 25.4512 113.43 22.7791 114.431 21.1552C115.432 19.5322 117.037 18.7191 119.245 18.7191C120.888 18.7191 122.091 19.2911 122.857 20.4332C123.62 21.5762 124.003 23.2891 124.003 25.5731V44.0662ZM98.4225 34.6637C98.4225 37.9117 97.2945 40.3847 95.0375 42.0837C92.7815 43.7827 89.4065 44.6327 84.9135 44.6327C82.6095 44.6327 80.6475 44.4767 79.0235 44.1657C77.3995 43.8537 75.8795 43.3957 74.4635 42.7917V35.6547C76.0685 36.4107 77.8755 37.0427 79.8875 37.5527C81.8975 38.0617 83.6675 38.3167 85.1965 38.3167C88.3305 38.3167 89.8985 37.4107 89.8985 35.5987C89.8985 34.9187 89.6905 34.3667 89.2755 33.9417C88.8595 33.5177 88.1425 33.0357 87.1225 32.4977C86.1035 31.9597 84.7435 31.3317 83.0445 30.6137C80.6095 29.5947 78.8195 28.6507 77.6785 27.7817C76.5355 26.9137 75.7045 25.9177 75.1865 24.7947C74.6665 23.6717 74.4065 22.2877 74.4065 20.6447C74.4065 17.8327 75.4965 15.6567 77.6785 14.1177C79.8585 12.5787 82.9495 11.8097 86.9525 11.8097C90.7665 11.8097 94.4765 12.6407 98.0825 14.3017L95.4775 20.5317C93.8915 19.8517 92.4085 19.2957 91.0305 18.8607C89.6525 18.4277 88.2455 18.2097 86.8115 18.2097C84.2625 18.2097 82.9875 18.8987 82.9875 20.2767C82.9875 21.0517 83.3995 21.7217 84.2195 22.2877C85.0415 22.8537 86.8395 23.6947 89.6145 24.8087C92.0885 25.8097 93.9015 26.7437 95.0525 27.6117C96.2035 28.4807 97.0535 29.4807 97.6015 30.6137C98.1495 31.7467 98.4225 33.0977 98.4225 34.6637ZM51.8748 11.8092C53.0457 11.8092 54.0178 11.8942 54.7917 12.0642L54.1407 20.1632C53.4418 19.9752 52.5928 19.8802 51.5918 19.8802C48.8347 19.8802 46.6877 20.5882 45.1478 22.0042C43.6098 23.4202 42.8408 25.4032 42.8408 27.9522V44.0662H34.2028V12.4042H40.7448L42.0197 17.7282H42.4438C43.4258 15.9542 44.7518 14.5242 46.4238 13.4382C48.0938 12.3522 49.9108 11.8092 51.8748 11.8092ZM11.668 22.1462H8.77901V9.85516H12.772C15.17 9.85516 16.93 10.3462 18.054 11.3282C19.177 12.3102 19.739 13.8301 19.739 15.8871C19.739 17.9261 19.069 19.4802 17.728 20.5461C16.387 21.6132 14.368 22.1462 11.668 22.1462ZM24.425 25.7992C27.211 23.4402 28.603 20.0322 28.603 15.5762C28.603 11.2912 27.296 8.0672 24.681 5.90515C22.066 3.74316 18.248 2.66217 13.225 2.66217H0V44.0662H8.77901V29.3392H12.546C17.681 29.3392 21.641 28.1602 24.425 25.7992Z" transform="translate(63.9999 231.555)" fill="white"/>
<path fill-rule="evenodd" clip-rule="evenodd" d="M95.4499 101.529L37.9709 118.529C36.2139 119.049 34.5309 117.53 34.9009 115.759L55.4339 17.4197C55.8189 15.5807 58.3599 15.2887 59.1629 16.9917L97.1819 97.7277C97.8989 99.2507 97.0809 101.047 95.4499 101.529ZM105.307 97.5187L61.2839 4.03669V4.03469C60.1799 1.69769 57.8759 0.155691 55.2649 0.0126908C52.5859 -0.143309 50.1859 1.14869 48.8319 3.34769L1.08789 80.6777C-0.39011 83.0877 -0.36211 86.0597 1.17189 88.4407L24.5109 124.593C25.9009 126.751 28.3109 128 30.8159 128C31.5259 128 32.2399 127.9 32.9429 127.692L100.686 107.656C102.762 107.042 104.459 105.574 105.347 103.628C106.232 101.681 106.218 99.4527 105.307 97.5187Z" transform="translate(104.049 64.0001)" fill="white"/>
</svg>
