<svg width="454" height="256" viewBox="0 0 454 256" fill="none" xmlns="http://www.w3.org/2000/svg">
<path fill-rule="evenodd" clip-rule="evenodd" d="M68.0119 44.066H59.3739V12.404H68.0119V44.066ZM63.708 0C60.574 0 59.007 1.406 59.007 4.219C59.007 7.051 60.574 8.467 63.708 8.467C65.275 8.467 66.45 8.095 67.234 7.349C68.017 6.603 68.409 5.56 68.409 4.219C68.409 1.406 66.841 0 63.708 0ZM174.174 29.5091L177.516 29.3961V32.0011C177.516 33.9091 176.916 35.4381 175.717 36.5891C174.519 37.7411 172.918 38.3171 170.917 38.3171C168.123 38.3171 166.726 37.0991 166.726 34.6641C166.726 32.9641 167.339 31.7001 168.567 30.8691C169.794 30.0381 171.663 29.5851 174.174 29.5091ZM178.394 39.7611L180.065 44.0661H186.097V22.9671C186.097 19.1911 184.964 16.3781 182.699 14.5281C180.433 12.6781 177.176 11.7521 172.928 11.7521C168.492 11.7521 164.451 12.7061 160.807 14.6131L163.667 20.4471C167.084 18.9171 170.058 18.1531 172.588 18.1531C175.873 18.1531 177.516 19.7581 177.516 22.9671V24.3551L172.022 24.5251C167.283 24.6951 163.739 25.5781 161.387 27.1731C159.037 28.7691 157.862 31.2471 157.862 34.6071C157.862 37.8171 158.735 40.2901 160.481 42.0271C162.228 43.7641 164.62 44.6321 167.661 44.6321C170.134 44.6321 172.14 44.2781 173.678 43.5701C175.217 42.8621 176.713 41.5931 178.167 39.7611H178.394ZM124.003 44.066H132.641V28.178C132.641 24.893 133.165 22.496 134.212 20.985C135.261 19.475 136.842 18.719 138.956 18.719C140.599 18.719 141.802 19.291 142.568 20.433C143.331 21.575 143.714 23.289 143.714 25.573V44.066H152.38V23.42C152.38 19.361 151.46 16.411 149.619 14.57C147.779 12.73 145.064 11.809 141.477 11.809C139.4 11.809 137.536 12.215 135.884 13.027C134.232 13.839 132.981 14.981 132.131 16.454H131.367C129.686 13.358 126.477 11.809 121.738 11.809C119.661 11.809 117.82 12.22 116.215 13.041C114.611 13.862 113.383 15 112.534 16.454H112.052L110.891 12.404H104.292V44.066H112.93V29.17C112.93 25.45 113.43 22.779 114.431 21.155C115.432 19.531 117.037 18.719 119.245 18.719C120.888 18.719 122.091 19.291 122.857 20.433C123.62 21.575 124.003 23.289 124.003 25.573V44.066ZM98.4225 34.6637C98.4225 37.9117 97.2945 40.3847 95.0375 42.0837C92.7815 43.7827 89.4065 44.6327 84.9135 44.6327C82.6095 44.6327 80.6475 44.4767 79.0235 44.1647C77.3995 43.8537 75.8795 43.3957 74.4635 42.7917V35.6547C76.0685 36.4107 77.8755 37.0427 79.8875 37.5527C81.8975 38.0617 83.6675 38.3167 85.1965 38.3167C88.3305 38.3167 89.8985 37.4107 89.8985 35.5987C89.8985 34.9187 89.6905 34.3667 89.2755 33.9417C88.8595 33.5167 88.1425 33.0357 87.1225 32.4967C86.1035 31.9587 84.7435 31.3317 83.0445 30.6137C80.6095 29.5947 78.8195 28.6507 77.6785 27.7817C76.5355 26.9137 75.7045 25.9177 75.1865 24.7937C74.6665 23.6707 74.4065 22.2877 74.4065 20.6447C74.4065 17.8317 75.4965 15.6567 77.6785 14.1177C79.8585 12.5787 82.9495 11.8097 86.9525 11.8097C90.7665 11.8097 94.4765 12.6407 98.0825 14.3017L95.4775 20.5317C93.8915 19.8517 92.4085 19.2957 91.0305 18.8607C89.6525 18.4267 88.2455 18.2097 86.8115 18.2097C84.2625 18.2097 82.9875 18.8987 82.9875 20.2767C82.9875 21.0517 83.3995 21.7217 84.2195 22.2877C85.0415 22.8537 86.8395 23.6947 89.6145 24.8087C92.0885 25.8097 93.9015 26.7437 95.0525 27.6117C96.2035 28.4807 97.0535 29.4807 97.6015 30.6137C98.1495 31.7467 98.4225 33.0967 98.4225 34.6637ZM51.8747 11.8092C53.0457 11.8092 54.0177 11.8942 54.7917 12.0642L54.1407 20.1632C53.4417 19.9752 52.5927 19.8802 51.5917 19.8802C48.8347 19.8802 46.6877 20.5882 45.1477 22.0042C43.6097 23.4202 42.8407 25.4032 42.8407 27.9522V44.0662H34.2027V12.4042H40.7447L42.0197 17.7282H42.4437C43.4257 15.9542 44.7517 14.5232 46.4237 13.4372C48.0937 12.3522 49.9107 11.8092 51.8747 11.8092ZM11.6681 22.1461H8.77905V9.8551H12.7721C15.17 9.8551 16.9301 10.3461 18.054 11.3281C19.1771 12.3101 19.739 13.8301 19.739 15.8871C19.739 17.9261 19.0691 19.4791 17.7281 20.5461C16.3871 21.6131 14.368 22.1461 11.6681 22.1461ZM24.425 25.7991C27.211 23.4391 28.603 20.0321 28.603 15.5761C28.603 11.2901 27.296 8.0661 24.681 5.9041C22.066 3.7431 18.248 2.6621 13.225 2.6621H0V44.0661H8.77899V29.3391H12.546C17.681 29.3391 21.641 28.1601 24.425 25.7991Z" transform="translate(203.828 105.684)" fill="#0C344B"/>
<path fill-rule="evenodd" clip-rule="evenodd" d="M105.306 97.5187L61.2843 4.03669V4.03469C60.1803 1.69769 57.8763 0.155691 55.2653 0.0126908C52.5863 -0.143309 50.1863 1.14869 48.8323 3.34769L1.08827 80.6777C-0.390728 83.0877 -0.361728 86.0597 1.17227 88.4407L24.5103 124.593C25.9013 126.751 28.3113 128 30.8163 128C31.5263 128 32.2403 127.9 32.9423 127.692L100.686 107.656C102.761 107.042 104.458 105.574 105.346 103.628C106.231 101.681 106.217 99.4527 105.306 97.5187ZM95.4493 101.529L37.9703 118.529C36.2143 119.049 34.5313 117.53 34.9003 115.759L55.4343 17.4197C55.8183 15.5807 58.3603 15.2887 59.1623 16.9917L97.1823 97.7277C97.8993 99.2507 97.0813 101.047 95.4493 101.529Z" transform="translate(64.2836 64.0001)" fill="#0C344B"/>
</svg>
