<svg width="605" height="195" viewBox="0 0 605 195" fill="none" xmlns="http://www.w3.org/2000/svg">
<path fill-rule="evenodd" clip-rule="evenodd" d="M2.20316 123.367C0.281957 126.5 0.311691 130.455 2.2798 133.559L37.902 189.752C40.214 193.399 44.6703 195.062 48.8063 193.821L151.604 162.982C157.214 161.299 160.036 155.041 157.584 149.722L91.5009 6.37265C88.2782 -0.618156 78.563 -1.19199 74.5397 5.37082L2.20316 123.367ZM89.7451 39.1438C88.3406 35.8938 83.5845 36.3944 82.8873 39.8656L57.4457 166.544C56.9092 169.215 59.4101 171.496 62.0207 170.717L133.045 149.515C135.118 148.897 136.186 146.607 135.328 144.621L89.7451 39.1438Z" fill="white"/>
<path fill-rule="evenodd" clip-rule="evenodd" d="M220.059 97.1332H226.32C232.172 97.1332 236.547 95.978 239.454 93.6656C242.36 91.3532 243.812 87.9876 243.812 83.5686C243.812 79.1107 242.594 75.8165 240.16 73.6884C237.724 71.5602 233.91 70.4961 228.713 70.4961H220.059V97.1332ZM263.023 82.8945C263.023 92.5516 260.006 99.9352 253.968 105.05C247.935 110.167 239.353 112.722 228.224 112.722H220.06V144.638H201.034V54.9072H229.695C240.581 54.9072 248.856 57.25 254.523 61.9333C260.19 66.6188 263.023 73.6059 263.023 82.8945V82.8945Z" fill="white"/>
<path fill-rule="evenodd" clip-rule="evenodd" d="M313.458 74.729C315.996 74.729 318.103 74.9132 319.78 75.2816L318.369 92.8338C316.854 92.4264 315.015 92.2205 312.845 92.2205C306.87 92.2205 302.217 93.7549 298.88 96.8236C295.547 99.8924 293.88 104.19 293.88 109.714V144.637H275.16V76.0185H289.338L292.101 87.5567H293.02C295.148 83.7121 298.021 80.6108 301.645 78.2572C305.264 75.9058 309.202 74.729 313.458 74.729" fill="white"/>
<path fill-rule="evenodd" clip-rule="evenodd" d="M329.708 144.637H348.428V76.0191H329.708V144.637ZM328.914 58.2797C328.914 52.1833 332.31 49.1362 339.102 49.1362C345.892 49.1362 349.29 52.1833 349.29 58.2797C349.29 61.1859 348.441 63.4463 346.744 65.063C345.045 66.6797 342.498 67.4859 339.102 67.4859C332.31 67.4859 328.914 64.4172 328.914 58.2797V58.2797Z" fill="white"/>
<path fill-rule="evenodd" clip-rule="evenodd" d="M414.336 124.258C414.336 131.297 411.891 136.657 407 140.339C402.11 144.021 394.796 145.863 385.059 145.863C380.066 145.863 375.814 145.525 372.294 144.849C368.775 144.175 365.48 143.182 362.412 141.873V126.406C365.89 128.044 369.806 129.414 374.167 130.519C378.523 131.622 382.359 132.175 385.672 132.175C392.464 132.175 395.862 130.212 395.862 126.285C395.862 124.811 395.412 123.615 394.512 122.694C393.611 121.772 392.057 120.73 389.846 119.562C387.638 118.396 384.69 117.037 381.008 115.481C375.731 113.273 371.852 111.227 369.379 109.344C366.902 107.462 365.101 105.304 363.979 102.868C362.852 100.434 362.288 97.437 362.288 93.8762C362.288 87.7799 364.65 83.0662 369.379 79.7309C374.104 76.3956 380.803 74.729 389.478 74.729C397.744 74.729 405.784 76.53 413.599 80.1297L407.953 93.6314C404.516 92.1577 401.302 90.9527 398.316 90.01C395.329 89.0694 392.28 88.5991 389.172 88.5991C383.648 88.5991 380.885 90.0923 380.885 93.0787C380.885 94.7583 381.778 96.2103 383.555 97.437C385.336 98.6636 389.233 100.486 395.247 102.9C400.609 105.07 404.538 107.094 407.032 108.975C409.527 110.858 411.369 113.026 412.556 115.481C413.744 117.937 414.336 120.862 414.336 124.258" fill="white"/>
<path fill-rule="evenodd" clip-rule="evenodd" d="M488.494 144.637H469.774V104.558C469.774 99.6085 468.944 95.8939 467.29 93.419C465.63 90.944 463.023 89.7044 459.462 89.7044C454.677 89.7044 451.199 91.4642 449.029 94.9837C446.86 98.5032 445.776 104.292 445.776 112.354V144.637H427.056V76.0185H441.358L443.874 84.7957H444.918C446.758 81.6446 449.42 79.1783 452.896 77.399C456.374 75.6197 460.364 74.729 464.865 74.729C475.136 74.729 482.09 78.086 485.733 84.7957H487.389C489.231 81.6034 491.942 79.1284 495.522 77.3687C499.103 75.6089 503.142 74.729 507.644 74.729C515.417 74.729 521.301 76.725 525.289 80.7127C529.279 84.7025 531.273 91.0957 531.273 99.8924V144.637H512.492V104.558C512.492 99.6085 511.662 95.8939 510.008 93.419C508.348 90.944 505.741 89.7044 502.18 89.7044C497.599 89.7044 494.172 91.3428 491.899 94.6153C489.63 97.8899 488.494 103.085 488.494 110.204V144.637Z" fill="white"/>
<path fill-rule="evenodd" clip-rule="evenodd" d="M585.75 112.844L578.507 113.089C573.065 113.254 569.015 114.235 566.355 116.036C563.694 117.837 562.366 120.577 562.366 124.261C562.366 129.538 565.393 132.178 571.448 132.178C575.785 132.178 579.255 130.929 581.851 128.433C584.449 125.938 585.75 122.625 585.75 118.49V112.844ZM591.273 144.636L587.652 135.306H587.16C584.009 139.277 580.767 142.027 577.431 143.561C574.098 145.095 569.751 145.863 564.391 145.863C557.801 145.863 552.617 143.982 548.831 140.217C545.047 136.453 543.155 131.093 543.155 124.136C543.155 116.855 545.701 111.484 550.794 108.025C555.891 104.569 563.572 102.655 573.842 102.287L585.749 101.918V98.9102C585.749 91.9556 582.188 88.4773 575.069 88.4773C569.586 88.4773 563.141 90.133 555.735 93.4488L549.537 80.8054C557.434 76.6725 566.192 74.605 575.806 74.605C585.012 74.605 592.071 76.6118 596.982 80.6211C601.89 84.6305 604.346 90.7268 604.346 98.9102V144.636H591.273Z" fill="white"/>
</svg>
