<svg width="118" height="144" viewBox="0 0 118 144" fill="none" xmlns="http://www.w3.org/2000/svg">
<path fill-rule="evenodd" clip-rule="evenodd" d="M1.05731 91.2538C-0.372741 93.5865 -0.350609 96.5297 1.11436 98.8407L27.6299 140.668C29.3508 143.383 32.6679 144.621 35.7465 143.697L112.264 120.742C116.44 119.489 118.541 114.831 116.716 110.872L67.5265 4.16889C65.1276 -1.03475 57.8961 -1.46189 54.9013 3.42317L1.05731 91.2538ZM66.2195 28.5622C65.1741 26.1431 61.6338 26.5157 61.1149 29.0995L42.1773 123.393C41.778 125.381 43.6395 127.079 45.5827 126.499L98.4502 110.718C99.9933 110.257 100.788 108.553 100.149 107.074L66.2195 28.5622Z" fill="white"/>
</svg>
