<svg width="225" height="108" viewBox="0 0 225 108" fill="none" xmlns="http://www.w3.org/2000/svg">
<path fill-rule="evenodd" clip-rule="evenodd" d="M0.528656 63.6269C-0.186371 64.7933 -0.175304 66.2649 0.557182 67.4203L13.815 88.334C14.6754 89.6913 16.334 90.3103 17.8733 89.8485L56.1321 78.3708C58.22 77.7445 59.2704 75.4154 58.3578 73.4358L33.7632 20.0844C32.5638 17.4826 28.948 17.2691 27.4507 19.7116L0.528656 63.6269ZM33.1098 32.2811C32.587 31.0715 30.8169 31.2578 30.5574 32.5497L21.0886 79.6965C20.889 80.6906 21.8197 81.5396 22.7914 81.2495L49.2251 73.3589C49.9967 73.1286 50.3941 72.2763 50.0747 71.5372L33.1098 32.2811Z" fill="#5A67D8"/>
<path fill-rule="evenodd" clip-rule="evenodd" d="M81.6152 53.8625H83.9454C86.1232 53.8625 87.7517 53.4326 88.8333 52.5719C89.915 51.7113 90.4554 50.4587 90.4554 48.8141C90.4554 47.1549 90.0021 45.9289 89.0963 45.1368C88.1897 44.3448 86.7701 43.9487 84.8359 43.9487H81.6152V53.8625ZM97.602 48.5634C97.602 52.1575 96.4792 54.9055 94.2321 56.8091C91.9865 58.7134 88.7925 59.6644 84.6506 59.6644H81.6122V71.5429H74.5312V38.1472H85.1983C89.2498 38.1472 92.3293 39.0191 94.4385 40.7621C96.5478 42.5059 97.602 45.1064 97.602 48.5634V48.5634Z" fill="#5A67D8"/>
<path fill-rule="evenodd" clip-rule="evenodd" d="M116.375 45.5245C117.32 45.5245 118.104 45.593 118.728 45.7302L118.203 52.2627C117.639 52.111 116.954 52.0344 116.147 52.0344C113.923 52.0344 112.191 52.6055 110.949 53.7476C109.709 54.8897 109.088 56.4892 109.088 58.5452V71.5424H102.121V46.0044H107.398L108.426 50.2986H108.768C109.56 48.8678 110.63 47.7135 111.978 46.8376C113.325 45.9624 114.791 45.5245 116.375 45.5245" fill="#5A67D8"/>
<path fill-rule="evenodd" clip-rule="evenodd" d="M122.42 71.5423H129.387V46.0043H122.42V71.5423ZM122.121 39.4024C122.121 37.1335 123.385 35.9995 125.913 35.9995C128.44 35.9995 129.705 37.1335 129.705 39.4024C129.705 40.4841 129.388 41.3253 128.757 41.927C128.124 42.5287 127.177 42.8288 125.913 42.8288C123.385 42.8288 122.121 41.6867 122.121 39.4024V39.4024Z" fill="#5A67D8"/>
<path fill-rule="evenodd" clip-rule="evenodd" d="M153.914 63.9587C153.914 66.5785 153.004 68.5731 151.184 69.9435C149.364 71.3139 146.642 71.9995 143.018 71.9995C141.159 71.9995 139.577 71.8737 138.267 71.622C136.957 71.3712 135.731 71.0018 134.589 70.5146V64.758C135.884 65.3678 137.341 65.8775 138.964 66.2889C140.585 66.6995 142.013 66.9051 143.246 66.9051C145.774 66.9051 147.039 66.1744 147.039 64.7128C147.039 64.1644 146.871 63.7191 146.536 63.3763C146.201 63.0335 145.622 62.6456 144.799 62.2108C143.978 61.7769 142.881 61.2711 141.51 60.692C139.546 59.8701 138.102 59.1087 137.182 58.4078C136.26 57.7077 135.59 56.9043 135.172 55.9977C134.753 55.0919 134.543 53.9764 134.543 52.6512C134.543 50.3823 135.422 48.628 137.182 47.3866C138.94 46.1453 141.434 45.525 144.662 45.525C147.739 45.525 150.731 46.1953 153.64 47.535L151.538 52.56C150.259 52.0116 149.063 51.5631 147.952 51.2122C146.84 50.8622 145.705 50.6872 144.549 50.6872C142.493 50.6872 141.464 51.2429 141.464 52.3544C141.464 52.9795 141.797 53.5199 142.458 53.9764C143.121 54.4329 144.571 55.1113 146.809 56.0098C148.805 56.8172 150.267 57.5705 151.196 58.2707C152.124 58.9716 152.81 59.7782 153.252 60.692C153.694 61.6059 153.914 62.6948 153.914 63.9587" fill="#5A67D8"/>
<path fill-rule="evenodd" clip-rule="evenodd" d="M181.518 71.5424H174.551V56.6263C174.551 54.7841 174.242 53.4016 173.627 52.4805C173.009 51.5593 172.038 51.098 170.713 51.098C168.932 51.098 167.638 51.7529 166.83 53.0628C166.023 54.3727 165.62 56.5271 165.62 59.5276V71.5424H158.652V46.0044H163.975L164.911 49.2711H165.3C165.985 48.0983 166.975 47.1804 168.269 46.5182C169.564 45.856 171.049 45.5245 172.724 45.5245C176.546 45.5245 179.135 46.7739 180.491 49.2711H181.107C181.792 48.083 182.801 47.1618 184.134 46.5069C185.466 45.8519 186.97 45.5245 188.645 45.5245C191.538 45.5245 193.728 46.2673 195.212 47.7515C196.697 49.2364 197.439 51.6158 197.439 54.8897V71.5424H190.449V56.6263C190.449 54.7841 190.141 53.4016 189.525 52.4805C188.907 51.5593 187.937 51.098 186.612 51.098C184.907 51.098 183.631 51.7077 182.785 52.9257C181.941 54.1444 181.518 56.0778 181.518 58.7274V71.5424Z" fill="#5A67D8"/>
<path fill-rule="evenodd" clip-rule="evenodd" d="M217.704 59.7105L215.008 59.8017C212.983 59.863 211.476 60.2283 210.486 60.8986C209.495 61.5689 209.001 62.5884 209.001 63.9596C209.001 65.9236 210.128 66.906 212.381 66.906C213.995 66.906 215.287 66.4414 216.253 65.5123C217.22 64.5839 217.704 63.3506 217.704 61.8117V59.7105ZM219.764 71.5422L218.416 68.0699H218.233C217.06 69.5475 215.854 70.5711 214.612 71.1421C213.372 71.7132 211.754 71.9987 209.759 71.9987C207.306 71.9987 205.377 71.2986 203.968 69.8976C202.56 68.4966 201.855 66.5019 201.855 63.9127C201.855 61.2026 202.803 59.2039 204.699 57.9166C206.596 56.6301 209.454 55.9179 213.277 55.7808L217.708 55.6436V54.5241C217.708 51.9358 216.383 50.6412 213.733 50.6412C211.693 50.6412 209.294 51.2574 206.538 52.4915L204.231 47.7859C207.17 46.2478 210.429 45.4783 214.007 45.4783C217.434 45.4783 220.061 46.2252 221.889 47.7173C223.715 49.2095 224.629 51.4784 224.629 54.5241V71.5422H219.764Z" fill="#5A67D8"/>
</svg>
