<svg width="59" height="108" viewBox="0 0 59 108" fill="none" xmlns="http://www.w3.org/2000/svg">
<path fill-rule="evenodd" clip-rule="evenodd" d="M0.528656 63.6269C-0.186371 64.7933 -0.175304 66.2649 0.557182 67.4203L13.815 88.334C14.6754 89.6913 16.334 90.3103 17.8733 89.8485L56.1321 78.3708C58.22 77.7445 59.2704 75.4154 58.3578 73.4358L33.7632 20.0844C32.5638 17.4826 28.948 17.2691 27.4507 19.7116L0.528656 63.6269ZM33.1098 32.2811C32.587 31.0715 30.8169 31.2578 30.5574 32.5497L21.0886 79.6965C20.889 80.6906 21.8197 81.5396 22.7914 81.2495L49.2251 73.3589C49.9967 73.1286 50.3941 72.2763 50.0747 71.5372L33.1098 32.2811Z" fill="#5A67D8"/>
</svg>
